<svg id="Layer_1" data-name="Layer 1" xmlns="http://www.w3.org/2000/svg" viewBox="0 0 96 96">
  <defs>
    <style>
      .cls-1 {
        fill: #5b5753;
      }

      .cls-2 {
        fill: none;
        stroke: #009fdf;
        stroke-miterlimit: 10;
        stroke-width: 6px;
      }

      .cls-3 {
        fill: #009fdf;
      }
    </style>
  </defs>
  <title>Artboard 1 copy 6</title>
  <circle class="cls-1" cx="48" cy="48" r="48" />
  <circle class="cls-2" cx="48" cy="28.98" r="16.5" />
  <path class="cls-3" d="M86.83,76.21A39.13,39.13,0,0,0,70.74,48l-2-1.47-1.8,1.77a27,27,0,0,1-37.78,0l-1.8-1.77-2,1.47A39.13,39.13,0,0,0,9.17,76.21a48.25,48.25,0,0,0,6,6.79A33,33,0,0,1,26.86,54.31a33,33,0,0,0,42.27,0A33,33,0,0,1,80.83,83,48.25,48.25,0,0,0,86.83,76.21Z" />
</svg>