<?xml version="1.0" encoding="UTF-8"?>
<svg width="96px" height="96px" viewBox="0 0 96 96" version="1.1" xmlns="http://www.w3.org/2000/svg" xmlns:xlink="http://www.w3.org/1999/xlink">
    <!-- Generator: Sketch 42 (36781) - http://www.bohemiancoding.com/sketch -->
    <title>Pipe</title>
    <desc>Created with Sketch.</desc>
    <defs></defs>
    <g id="Page-1" stroke="none" stroke-width="1" fill="none" fill-rule="evenodd">
        <g id="Pipes-96x96">
            <path d="M16.3769598,27 L18,29.5315414 L18,66.4721293 L16.3526595,69 L10.6348594,69 L9,66.4856424 L9,29.5719098 L10.6950904,27 L16.3769598,27 Z M8.66420085,21 C7.91118954,21 7.20446302,21.3298087 6.76638138,21.8856572 L3.43551386,26.1119414 C3.15228112,26.4713139 3,26.9020896 3,27.3439313 L3,68.7109949 C3,69.1482121 3.14911351,69.5747117 3.42686971,69.9319425 L6.67020874,74.1033005 C7.10740147,74.6655875 7.81839252,75 8.57667236,75 L18.4055827,75 C19.1629907,75 19.873277,74.6663515 20.3106217,74.1051307 L23.5717057,69.9203575 C23.8503649,69.5627692 24,69.1355618 24,68.6975798 L24,27.3153292 C24,26.8828892 23.8541238,26.4608146 23.5819821,26.1058465 L20.3637651,21.9081644 C19.9275653,21.339207 19.2121789,21 18.4484497,21 L8.66420085,21 Z" id="Rectangle-6-Copy-4" fill="#FF00FF" fill-rule="nonzero"></path>
            <path d="M85.3769598,27 L87,29.5315414 L87,66.4721293 L85.3526595,69 L79.6348594,69 L78,66.4856424 L78,29.5719098 L79.6950904,27 L85.3769598,27 Z M77.6642008,21 C76.9111895,21 76.204463,21.3298087 75.7663814,21.8856572 L72.4355139,26.1119414 C72.1522811,26.4713139 72,26.9020896 72,27.3439313 L72,68.7109949 C72,69.1482121 72.1491135,69.5747117 72.4268697,69.9319425 L75.6702087,74.1033005 C76.1074015,74.6655875 76.8183925,75 77.5766724,75 L87.4055827,75 C88.1629907,75 88.873277,74.6663515 89.3106217,74.1051307 L92.5717057,69.9203575 C92.8503649,69.5627692 93,69.1355618 93,68.6975798 L93,27.3153292 C93,26.8828892 92.8541238,26.4608146 92.5819821,26.1058465 L89.3637651,21.9081644 C88.9275653,21.339207 88.2121789,21 87.4484497,21 L77.6642008,21 Z" id="Rectangle-6-Copy-5" fill="#FF00FF" fill-rule="nonzero"></path>
            <path d="M22.5,30 L73.5,30" id="Line" stroke="#FF00FF" stroke-width="6" stroke-linecap="square"></path>
            <path d="M22.5,66 L73.5,66" id="Line-Copy" stroke="#FF00FF" stroke-width="6" stroke-linecap="square"></path>
        </g>
    </g>
</svg>
